<svg id="Calque_1" data-name="Calque 1" xmlns="http://www.w3.org/2000/svg" viewBox="0 0 50 50"><defs><style>.cls-1{fill:#0e0f0e;}</style></defs><title>dots-background</title><path class="cls-1" d="M40.52,29.73a6.17,6.17,0,0,0-1.26-1.89,2.77,2.77,0,0,0-2.69,2.57,2.14,2.14,0,0,0,1.79,2.18,2.58,2.58,0,0,0,2.16-2.86"/><path class="cls-1" d="M17.58,2.71A6.17,6.17,0,0,0,16.32.82a2.77,2.77,0,0,0-2.69,2.57,2.13,2.13,0,0,0,1.79,2.18,2.58,2.58,0,0,0,2.16-2.86"/><path class="cls-1" d="M33.16,21.63c0,1.31.72,2.28,1.66,2.27a2.09,2.09,0,0,0,1.71-2.26c0-1.21-.84-2.55-1.74-2.61s-1.65,1.17-1.63,2.61"/><path class="cls-1" d="M12.77,12.06c1,0,1.64-1,1.56-2.29A2.17,2.17,0,0,0,12.19,7.5a1.71,1.71,0,0,0-1.53,2,2.37,2.37,0,0,0,2.1,2.6"/><path class="cls-1" d="M39.17,14.93A1.85,1.85,0,0,0,41,16.76a2.13,2.13,0,0,0,2-2.28,1.59,1.59,0,0,0-1.74-1.75,2,2,0,0,0-2,2.2"/><path class="cls-1" d="M9.27,25.51c-0.69-.3-1.93,1.33-1.94,2.46a1.76,1.76,0,0,0,1.56,2c1.05,0.12,1.83-.94,1.84-3a4.89,4.89,0,0,0-1.46-1.5"/><path class="cls-1" d="M1.84,46a1.92,1.92,0,0,0,1.89,2H3.81a1.41,1.41,0,0,0,1.68-1.44c0.07-1.24-1-2.75-1.94-2.75A2.07,2.07,0,0,0,1.84,46"/><path class="cls-1" d="M18.84,18.71a10.78,10.78,0,0,0,1.65-2.44,1.79,1.79,0,0,0-1.92-1.93c-1.16.07-2.57,1.36-2.15,2.14s1.37,1.3,2.43,2.23"/><path class="cls-1" d="M43.64,34.12c0.9,0,1.71-1.09,1.71-2.76a5.64,5.64,0,0,0-1.57-1.1,1.84,1.84,0,0,0-2,1.84,2,2,0,0,0,1.91,2"/><path class="cls-1" d="M18.31,7.38a1.88,1.88,0,0,0,1.82,1.82c1,0,1.89-1.08,1.82-2.67A5.83,5.83,0,0,0,20.18,5.2C19.41,5,18.32,6.45,18.31,7.38"/><path class="cls-1" d="M45.3,18.21a2,2,0,0,0-1.6,2.32,5,5,0,0,0,1.15,1.59,2.38,2.38,0,0,0,2.31-2.25,1.66,1.66,0,0,0-1.65-1.67H45.3"/><path class="cls-1" d="M44.73,12.5c-0.13,1,1.37,2.28,2.28,1.92a2.39,2.39,0,0,0,1.26-1.56c0.19-1.09-1.1-2.22-2.61-2.09a5,5,0,0,0-.93,1.73"/><path class="cls-1" d="M1.94,12.35a1.66,1.66,0,0,0,1.73-1.78A2.17,2.17,0,0,0,1.85,8.32C0.93,8.18,0,9.26,0,10.42a1.76,1.76,0,0,0,1.93,1.93"/><path class="cls-1" d="M29.49,43.79a2.1,2.1,0,0,0,2-2A1.63,1.63,0,0,0,30,40H29.76a1.92,1.92,0,0,0-2,1.62,2,2,0,0,0,1.72,2.18"/><path class="cls-1" d="M13.5,20.38A4.41,4.41,0,0,0,11.88,19c-1.08-.26-1.71.63-1.82,1.66a1.71,1.71,0,0,0,1.63,1.92c1,0.19,1.74-.58,1.81-2.23"/><path class="cls-1" d="M37.54,47.74a2.27,2.27,0,0,0-2-2.18,1.49,1.49,0,0,0-1.46,1.67,1.71,1.71,0,0,0,1.67,1.93,1.45,1.45,0,0,0,1.77-1.42"/><path class="cls-1" d="M31.95,35.66A9.59,9.59,0,0,0,34.15,34a9.38,9.38,0,0,0-2.2-2c-0.74-.29-1.72.79-1.71,1.8s0.89,2.1,1.71,1.84"/><path class="cls-1" d="M31.75,12.54A2.8,2.8,0,0,0,33.53,14c0.53,0,1.14-.84,2.07-1.6a10.88,10.88,0,0,0-2.39-1.84c-0.66-.23-1.82,1.31-1.45,2"/><path class="cls-1" d="M4.91,38.69a10.51,10.51,0,0,0,1.43-2.43,1.87,1.87,0,0,0-1.62-2.09H4.58a1.72,1.72,0,0,0-1.5,2,12.39,12.39,0,0,0,1.83,2.53"/><path class="cls-1" d="M23.27,37.2c0.06,1,1,2,1.88,1.67a8.91,8.91,0,0,0,2.09-1.79,9.37,9.37,0,0,0-2.37-1.79c-0.75-.23-1.67.88-1.6,1.92"/><path class="cls-1" d="M0.61,29.88c0.06,1,1,2,1.88,1.67a8.91,8.91,0,0,0,2.09-1.79A9.37,9.37,0,0,0,2.21,28c-0.75-.23-1.67.88-1.6,1.91"/><path class="cls-1" d="M21.54,23.17a2.25,2.25,0,0,0,1.38,1.38c1,0.3,2-.63,2.22-2.15a4.58,4.58,0,0,0-1.42-1.27c-0.84-.3-2.37,1.1-2.18,2"/><path class="cls-1" d="M28.56,9.27A1.57,1.57,0,0,0,26.82,11c0.06,0.76.74,1.47,1.46,2.79a10.24,10.24,0,0,0,1.58-2.44,1.61,1.61,0,0,0-1.31-2.12"/><path class="cls-1" d="M14.47,29.75c-0.69-.31-1.76.92-1.73,1.85a1.63,1.63,0,0,0,1.74,1.82c0.63-.06,1.18-0.84,2.1-1.56-0.9-.94-1.38-1.78-2.11-2.11"/><path class="cls-1" d="M4.56,20.72c-0.9,0-2.18,1.24-1.9,2A5.28,5.28,0,0,0,4,24.47a1.89,1.89,0,0,0,2-2.06c0-.9-0.32-1.7-1.42-1.7"/><path class="cls-1" d="M4.76,15.66a1.56,1.56,0,0,0,1.18,1.86l0.1,0a1.71,1.71,0,0,0,1.77-1.76,7.45,7.45,0,0,0-1.05-2.1c-1.71.06-1.88,1.06-2,2"/><path class="cls-1" d="M43.07,42.94a1.42,1.42,0,0,0-1.5,1.64c0.12,0.76.8,1.42,1.5,2.58,0.86-1,1.6-1.5,1.79-2.14a1.88,1.88,0,0,0-1.78-2.09"/><path class="cls-1" d="M11.8,48.57c0.75-.23,1.34-1,2.44-1.91-1.1-.65-1.74-1.31-2.39-1.34a1.63,1.63,0,0,0-1.67,1.83,1.28,1.28,0,0,0,1.63,1.41"/><path class="cls-1" d="M18.68,44.67a1.61,1.61,0,0,0,1.57,1.94A1.55,1.55,0,0,0,21.86,45c0.12-1-.63-1.88-2.07-1.92a4.28,4.28,0,0,0-1.1,1.6"/><path class="cls-1" d="M46,3a5,5,0,0,0,.5,1.67A2.11,2.11,0,0,0,49,2.81a1.42,1.42,0,0,0-1.47-1.7C46.25,1,46,2.08,46,3"/><path class="cls-1" d="M2.51,3.94a1.38,1.38,0,0,0,1.63,1.5c0.75-.17,1.36-0.92,2.5-1.75C5.5,2.94,4.9,2.26,4.25,2.2A1.57,1.57,0,0,0,2.51,3.94"/><path class="cls-1" d="M28.28,5.55a7.94,7.94,0,0,0,2-1.44c-1-.77-1.53-1.5-2.2-1.64A1.43,1.43,0,0,0,26.4,4,1.61,1.61,0,0,0,28,5.57l0.27,0"/><path class="cls-1" d="M16.1,27l2.25-2.74a7,7,0,0,0-1.9-1.13,1.87,1.87,0,0,0-1.74,2.39A4.47,4.47,0,0,0,16.09,27"/><path class="cls-1" d="M11.5,37.29A1.41,1.41,0,0,0,9.76,38.7c-0.14,1,.62,2.22,1.46,2a8.75,8.75,0,0,0,2.21-1.53c-0.84-.86-1.29-1.71-1.93-1.89"/><path class="cls-1" d="M21.95,28.46a1.4,1.4,0,0,0-1.74,1.41c-0.13,1,.62,2.22,1.46,2a8.67,8.67,0,0,0,2.21-1.53c-0.84-.86-1.29-1.7-1.93-1.89"/><path class="cls-1" d="M36.19,2.78a1.53,1.53,0,0,0-1.57,1.86,11,11,0,0,0,1.53,2.5,11,11,0,0,0,1.38-2.55,1.5,1.5,0,0,0-1.12-1.8l-0.22,0"/><path class="cls-1" d="M39.48,7.5c-0.24,1,.67,1.5,1.62,1.5a1.43,1.43,0,0,0,1.64-1.54C42.67,6.74,42,6.14,41.34,5c-0.86,1.13-1.66,1.75-1.84,2.5"/><path class="cls-1" d="M36,37.58a1.23,1.23,0,0,0-1.19,1.76,6.39,6.39,0,0,0,1.45,1.82l2.28-2c-1.15-.76-1.81-1.5-2.54-1.6"/><path class="cls-1" d="M46.81,33.51a1.23,1.23,0,0,0-1.19,1.76,6.39,6.39,0,0,0,1.45,1.82l2.28-2c-1.15-.76-1.81-1.5-2.54-1.6"/><path class="cls-1" d="M18.53,41.46A2.17,2.17,0,0,0,20,40.16c-0.08-.78-0.73-1.5-1.45-2.78A9.26,9.26,0,0,0,17,39.54a1.51,1.51,0,0,0,1.5,1.92"/><path class="cls-1" d="M47.85,26c0-1-.42-1.86-1.42-1.72-0.63.09-1.14,0.95-2.06,1.77,0.89,0.75,1.41,1.54,2,1.63,1,0.15,1.45-.71,1.44-1.68"/><path class="cls-1" d="M26.07,48.9A8.8,8.8,0,0,0,28,47.27c-0.92-.64-1.5-1.38-2-1.32a2.18,2.18,0,0,0-1.38,1.4,1.31,1.31,0,0,0,1.5,1.55"/><path class="cls-1" d="M29.54,28.19a7.51,7.51,0,0,0,1.94-1.5,5.73,5.73,0,0,0-1.74-1.16,1.14,1.14,0,0,0-1.29,1.42,1.93,1.93,0,0,0,1.09,1.23"/><path class="cls-1" d="M23.49,15.24a7.51,7.51,0,0,0,1.94-1.5,5.73,5.73,0,0,0-1.74-1.16A1.14,1.14,0,0,0,22.4,14a1.93,1.93,0,0,0,1.09,1.23"/><path class="cls-1" d="M46.78,48.8a7.51,7.51,0,0,0,1.94-1.5A5.54,5.54,0,0,0,47,46.15a1.14,1.14,0,0,0-1.29,1.42,1.93,1.93,0,0,0,1.09,1.23"/><path class="cls-1" d="M45.79,38.39c-0.78-.47-1.34-1.06-1.78-1s-0.74.83-1.1,1.29a4.38,4.38,0,0,0,1.5.92c0.31,0,.73-0.61,1.38-1.22"/><path class="cls-1" d="M40,22.47a4.21,4.21,0,0,0-1.1,1.33c-0.08.31,0.5,0.81,1,1.57A5.65,5.65,0,0,0,41,23.58a2.92,2.92,0,0,0-1-1.11"/><path class="cls-1" d="M28.72,17.53c-1.5.33-1.28,1.55-1.08,2.91,1.58,0.05,2.7-.22,2.59-1.73a1.94,1.94,0,0,0-1.5-1.18"/></svg>